# xmcd CD database file
#
# Track frame offsets:
#	150
#	9625
#	25647
#	38782
#	55390
#	64747
#	80682
#	106595
#	118930
#	134337
#
# Disc length: 2032 seconds
#
# Revision: 16
# Processed by: cddbd v1.5.2PL0 Copyright (c) Steve Scherf et al.
# Submitted via: CDex 2.23
#
DISCID=7f07ee0a
DTITLE=The Blues Brothers - Made in America 
DYEAR=1980
DGENRE=Rhythm and Blues
TTITLE0=Soul Finger (including "Funky Broadway")
TTITLE1=Who's Making Love
TTITLE2=Do You Love Me (including "Mother Popcorn [You Got to Have a Mother for Me]")
TTITLE3=Guilty
TTITLE4=Perry Mason Theme
TTITLE5=Riot in Cell Block Number Nine
TTITLE6=Green Onions
TTITLE7=I Ain't Got You
TTITLE8=From the Bottom
TTITLE9=Going Back to Miami
EXTD=YEAR: 1980
EXTT0=
EXTT1=
EXTT2=
EXTT3=
EXTT4=
EXTT5=
EXTT6=
EXTT7=
EXTT8=
EXTT9=
PLAYORDER=
